<svg id="Layer_1" data-name="Layer 1" xmlns="http://www.w3.org/2000/svg" xmlns:xlink="http://www.w3.org/1999/xlink" viewBox="0 0 1000 1000"><defs><style>.cls-1,.cls-2,.cls-3,.cls-4,.cls-5{fill-rule:evenodd;}.cls-1{fill:url(#GradientFill_1);}.cls-2{fill:url(#GradientFill_2);}.cls-3{fill:url(#GradientFill_3);}.cls-4{fill:url(#GradientFill_4);}.cls-5{fill:url(#GradientFill_5);}</style><linearGradient id="GradientFill_1" x1="500" y1="1000" x2="500" gradientUnits="userSpaceOnUse"><stop offset="0" stop-color="#ef4429"/><stop offset="1" stop-color="#fbae47"/></linearGradient><linearGradient id="GradientFill_2" x1="382.72" y1="986.62" x2="382.72" y2="241.5" gradientUnits="userSpaceOnUse"><stop offset="0" stop-color="#ef4629"/><stop offset="0.85" stop-color="#f1582f"/><stop offset="1" stop-color="#e84125"/></linearGradient><linearGradient id="GradientFill_3" x1="492.07" y1="656.39" x2="653.15" y2="656.39" gradientUnits="userSpaceOnUse"><stop offset="0" stop-color="#f26331"/><stop offset="1" stop-color="#e84125"/></linearGradient><linearGradient id="GradientFill_4" x1="637.82" y1="432.18" x2="838.06" y2="310.22" gradientUnits="userSpaceOnUse"><stop offset="0" stop-color="#e84125"/><stop offset="0.6" stop-color="#f57f3b"/><stop offset="1" stop-color="#f6883e"/></linearGradient><linearGradient id="GradientFill_5" x1="123.16" y1="332.84" x2="418.36" y2="332.84" gradientUnits="userSpaceOnUse"><stop offset="0" stop-color="#e84125"/><stop offset="1" stop-color="#f89840"/></linearGradient></defs><path class="cls-1" d="M370.9,870.23C116,534.51,544.93,467.54,538.71,227.05,662.59,395,667.54,452,537,585.64c-40,40.93-105.51,115.06-18,160.24C626.59,657.7,675.6,585.76,675.6,585.76c81.29,167.81-103,229.76-87.39,303.57C622.58,1052,847.31,1013.17,947,869c147.49-213.23-60.57-330.77-51.82-558.42-30.29,59.22-79,122-163.4,165.83C856.8,284.56,681.94,193.77,531.43,0,383.22,59.74,446,200,349.68,323.83,254,446.88,136.09,485.1,140.44,316.41,11.6,490.28-76.73,730.19,96.39,905.1c33.14,33.49,75.63,68.67,139.09,84.47C382.14,1026.07,440.65,962.11,370.9,870.23Z" transform="translate(0)"/><path class="cls-2" d="M370.9,870.23C140.51,566.76,468.84,482.88,529.45,291.94L489,241.5C450.26,428.72,174.62,559.09,248.5,756.34,275.71,829,351.87,912.55,372.72,986.62,408.75,965.79,410.61,922.53,370.9,870.23Z" transform="translate(0)"/><path class="cls-3" d="M634.93,566.89c-57.1,85.61-126.2,145.91-142.86,159.87,6.62,6.78,15.46,13.2,26.94,19.12,66.06-54.15,110-102.18,134.14-131.18C644.17,584.64,634.93,566.89,634.93,566.89Z" transform="translate(0)"/><path class="cls-4" d="M642.64,533.43q229.25-7,252.54-222.81c-30.29,59.22-79,122-163.4,165.83C799,373.31,779.54,299.39,723.83,223,784.11,329.9,728.85,447.14,642.64,533.43Z" transform="translate(0)"/><path class="cls-5" d="M140.44,316.41c-106.62,395.18,316.88,81,275-155.19-12.12,52-23.95,108.87-65.75,162.61C254,446.88,136.09,485.1,140.44,316.41Z" transform="translate(0)"/></svg>